<svg xmlns="http://www.w3.org/2000/svg" height="879pt" version="1.1" viewBox="-117 1 879 879.99894" width="879pt">
<g id="surface1">
<path d="M 588.390625 661.25 L 587.160156 660.5 L 587.160156 332.304688 C 587.320312 275.261719 564.644531 220.527344 524.203125 180.300781 C 518.378906 174.800781 509.28125 174.800781 503.460938 180.300781 C 489.5 194.316406 477.523438 210.179688 467.878906 227.457031 C 458 135.902344 407.957031 53.480469 331.304688 2.472656 C 326.371094 -0.824219 319.949219 -0.824219 315.027344 2.472656 C 238.363281 53.480469 188.328125 135.902344 178.445312 227.457031 C 168.804688 210.179688 156.835938 194.3125 142.863281 180.300781 C 137.050781 174.800781 127.941406 174.800781 122.128906 180.300781 C 81.679688 220.527344 59.003906 275.261719 59.167969 332.304688 L 59.167969 660.515625 L 57.929688 661.25 C 22.382812 682.691406 0.601562 721.144531 0.5 762.671875 L 0.5 806.667969 C 0.480469 814.425781 6.507812 820.859375 14.253906 821.332031 L 79.390625 825.414062 L 73.980469 863.285156 C 72.847656 871.304688 78.429688 878.726562 86.449219 879.863281 C 87.128906 879.949219 87.8125 880 88.5 880 L 176.503906 880 C 184.597656 880.007812 191.167969 873.4375 191.167969 865.335938 C 191.167969 864.640625 191.121094 863.949219 191.023438 863.25 L 186.617188 832.070312 L 235.164062 835.113281 L 235.164062 865.335938 C 235.164062 873.4375 241.734375 880 249.835938 880 L 396.496094 880 C 404.59375 880 411.164062 873.4375 411.164062 865.335938 L 411.164062 835.113281 L 459.769531 832.070312 L 455.371094 863.25 C 454.21875 871.277344 459.785156 878.699219 467.804688 879.851562 C 468.476562 879.949219 469.152344 880 469.828125 880 L 557.832031 880 C 565.933594 880.007812 572.496094 873.4375 572.496094 865.335938 C 572.496094 864.640625 572.445312 863.949219 572.347656 863.25 L 566.941406 825.382812 L 632.074219 821.335938 C 639.820312 820.859375 645.851562 814.425781 645.832031 806.667969 L 645.832031 762.671875 C 645.71875 721.144531 623.953125 682.691406 588.390625 661.25 Z M 615.261719 748.007812 L 411.164062 748.007812 L 411.164062 482.121094 L 471.019531 621.78125 C 472.21875 624.601562 474.265625 626.976562 476.886719 628.570312 L 573.320312 686.40625 C 595.589844 699.855469 610.910156 722.34375 615.261719 748.007812 Z M 164.765625 572.003906 L 88.5 572.003906 L 88.5 454.664062 L 176.496094 454.664062 L 176.496094 544.546875 Z M 176.496094 337.332031 L 176.496094 425.335938 L 88.5 425.335938 L 88.5 337.332031 Z M 557.832031 572.003906 L 481.5625 572.003906 L 469.828125 544.546875 L 469.828125 454.664062 L 557.832031 454.664062 Z M 557.832031 425.335938 L 469.828125 425.335938 L 469.828125 337.332031 L 557.832031 337.332031 Z M 440.492188 476.113281 L 411.164062 407.734375 L 411.164062 378.859375 C 411.140625 364.839844 409.324219 350.886719 405.75 337.332031 L 440.492188 337.332031 Z M 381.832031 410.667969 L 381.832031 718.667969 C 381.261719 718.222656 380.601562 717.921875 380.011719 717.511719 C 378.824219 716.671875 377.574219 715.941406 376.324219 715.179688 C 373.835938 713.617188 371.25 712.207031 368.589844 710.957031 C 367.117188 710.292969 365.753906 709.671875 364.300781 709.101562 C 361.433594 708.011719 358.492188 707.105469 355.5 706.375 C 354.125 706.039062 352.800781 705.617188 351.398438 705.347656 C 346.925781 704.472656 342.382812 704.023438 337.835938 704 L 337.835938 645.332031 L 308.496094 645.332031 L 308.496094 704 C 303.933594 704.027344 299.382812 704.492188 294.902344 705.375 C 293.4375 705.640625 292.175781 706.0625 290.800781 706.40625 C 287.808594 707.128906 284.871094 708.042969 282 709.128906 C 280.53125 709.707031 279.058594 710.332031 277.695312 710.984375 C 275.039062 712.234375 272.449219 713.640625 269.957031 715.1875 C 268.722656 715.96875 267.460938 716.65625 266.269531 717.535156 C 265.691406 717.945312 265.019531 718.253906 264.449219 718.691406 L 264.449219 378.859375 C 264.589844 334.179688 286.484375 292.359375 323.121094 266.792969 C 359.757812 292.359375 381.644531 334.179688 381.789062 378.859375 Z M 235.164062 378.859375 L 235.164062 407.734375 L 205.832031 476.167969 L 205.832031 337.332031 L 240.578125 337.332031 C 237 350.886719 235.183594 364.839844 235.164062 378.859375 Z M 264.5 777.335938 C 264.5 753.035156 284.195312 733.332031 308.496094 733.332031 L 308.496094 792.003906 L 264.5 792.003906 Z M 337.835938 777.335938 L 337.835938 733.332031 C 362.136719 733.332031 381.832031 753.035156 381.832031 777.335938 L 381.832031 792.003906 L 337.835938 792.003906 Z M 496.109375 605.867188 L 494.175781 601.332031 L 557.832031 601.332031 L 557.832031 642.898438 Z M 513.828125 212.285156 C 536.890625 239.425781 551.574219 272.679688 556.082031 308.003906 L 471.578125 308.003906 C 476.089844 272.679688 490.765625 239.425781 513.828125 212.285156 Z M 205.832031 261.300781 C 205.734375 170.574219 249.425781 85.371094 323.160156 32.507812 C 396.90625 85.363281 440.597656 170.574219 440.492188 261.300781 L 440.492188 307.996094 L 394.753906 307.996094 C 380.878906 278.46875 358.609375 253.6875 330.722656 236.761719 C 326.070312 233.96875 320.261719 233.96875 315.609375 236.761719 C 287.71875 253.6875 265.445312 278.46875 251.578125 307.996094 L 205.832031 307.996094 Z M 132.496094 212.285156 C 155.5625 239.425781 170.242188 272.679688 174.75 308.003906 L 90.242188 308.003906 C 94.753906 272.679688 109.4375 239.425781 132.496094 212.285156 Z M 88.5 601.339844 L 152.15625 601.339844 L 150.214844 605.867188 L 88.5 642.898438 Z M 73.023438 686.40625 L 169.382812 628.570312 C 172.003906 626.972656 174.054688 624.601562 175.253906 621.78125 L 235.164062 482.121094 L 235.164062 747.996094 L 31.058594 747.996094 C 35.421875 722.339844 50.742188 699.855469 73.023438 686.40625 Z M 29.828125 777.335938 L 235.164062 777.335938 L 235.164062 805.730469 L 29.828125 792.890625 Z M 159.589844 850.664062 L 105.402344 850.664062 L 108.753906 827.199219 L 156.671875 830.132812 Z M 264.5 821.332031 L 308.496094 821.332031 L 308.496094 850.664062 L 264.5 850.664062 Z M 381.832031 850.664062 L 337.835938 850.664062 L 337.835938 821.332031 L 381.832031 821.332031 Z M 540.921875 850.664062 L 486.742188 850.664062 L 489.675781 830.132812 L 537.59375 827.199219 Z M 616.496094 792.890625 L 411.164062 805.730469 L 411.164062 777.335938 L 616.496094 777.335938 Z M 616.496094 792.890625 " style=" stroke:none;fill-rule:nonzero;fill:rgb(0%,0%,0%);fill-opacity:1;" />
<path d="M 281.628906 373.195312 L 306.03125 389.476562 C 312.910156 380.015625 326.152344 377.921875 335.613281 384.800781 C 337.414062 386.101562 338.992188 387.683594 340.292969 389.476562 L 364.699219 373.195312 C 349.460938 350.253906 318.507812 344.015625 295.570312 359.253906 C 290.042969 362.925781 285.300781 367.664062 281.628906 373.195312 Z M 281.628906 373.195312 " style=" stroke:none;fill-rule:nonzero;fill:rgb(0%,0%,0%);fill-opacity:1;" />
</g>
</svg>